Land_normalized_Motion_pl06
version=1
nRows=12
nColumns=43
inDegrees=yes
endheader
time		pelvis_tilt		pelvis_list		pelvis_rotation		pelvis_tx		pelvis_ty		pelvis_tz		hip_flexion_r		hip_adduction_r		hip_rotation_r		knee_angle_r		ankle_angle_r		subtalar_angle_r		mtp_angle_r		hip_flexion_l		hip_adduction_l		hip_rotation_l		knee_angle_l		ankle_angle_l		subtalar_angle_l		mtp_angle_l		lumbar_extension		lumbar_bending		lumbar_rotation		neck_flexion		neck_lateral_bending		neck_rotation		arm_flex_r		arm_add_r		arm_rot_r		elbow_flex_r		pro_sup_r		wrist_flex_r		wrist_dev_r		hand_finger_flex_r		arm_flex_l		arm_add_l		arm_rot_l		elbow_flex_l		pro_sup_l		wrist_flex_l		wrist_dev_l		hand_finger_flex_l		
1.236667		-1.149195		16.610403		91.771966		-0.042463		0.479210		0.477939		76.070209		-8.298623		-3.075972		-133.016822		3.797874		-30.253822		8.491858		69.965639		5.545041		-7.742802		-128.773118		23.936164		-18.526105		25.265465		-75.507803		-0.674001		-5.858680		18.262604		3.511949		-3.579793		77.834589		-32.013794		30.804436		61.281266		99.405957		-31.491796		2.339762		57.207540		78.557338		-28.012938		21.997580		63.345815		136.250477		-33.342023		10.284997		90.000210		
1.239571		-1.243065		16.547330		92.032886		-0.043744		0.476410		0.477059		76.546298		-8.939114		-3.491062		-133.366011		3.159567		-31.837411		7.210312		70.283673		5.795928		-7.842459		-129.155497		24.235631		-18.123987		25.568497		-75.737577		-0.426481		-6.056798		18.441051		3.556488		-3.571095		79.713178		-31.882093		31.581285		61.505536		98.977781		-31.429204		2.502850		56.910934		80.361439		-27.936311		22.983374		63.354888		135.859560		-33.242163		10.352948		90.000210		
1.242475		-1.337962		16.378710		92.221467		-0.045044		0.473439		0.476087		77.118482		-9.526533		-3.790933		-133.728934		3.142633		-32.741152		6.592628		70.723548		5.973928		-8.017073		-129.552484		24.476558		-17.878435		25.773654		-75.846444		-0.246809		-6.212117		18.626993		3.673845		-3.525417		81.509910		-31.832563		32.299054		61.768945		98.955639		-31.217030		2.524593		56.812150		82.053250		-27.795361		23.860217		63.393027		135.877256		-33.100672		10.219149		90.000210		
1.245379		-1.462705		16.283491		92.470392		-0.046331		0.470778		0.475242		77.621693		-10.156161		-4.033401		-134.069097		2.725451		-33.797038		5.822230		71.063544		6.197084		-8.150006		-129.931612		24.716002		-17.419177		26.084588		-76.032487		-0.030960		-6.420597		18.793661		3.752863		-3.530255		83.301206		-31.692494		32.962592		61.946209		98.764163		-31.045848		2.639630		56.647582		83.792757		-27.677606		24.815678		63.344729		135.806053		-32.931396		10.105058		90.000210		
1.248283		-1.520475		16.219472		92.623450		-0.047370		0.468377		0.474437		78.052196		-10.647092		-4.316377		-134.347616		2.094781		-35.110381		4.511453		71.338946		6.278460		-8.220387		-130.327758		25.008855		-16.789006		26.632825		-76.259906		0.124120		-6.570187		18.998430		3.829437		-3.526478		85.034334		-31.475074		33.521846		62.101825		98.207501		-31.025398		2.810963		56.265389		85.513562		-27.549553		25.712690		63.273281		135.473913		-32.876780		10.091152		90.000210		
1.251187		-1.569678		16.017030		92.744872		-0.048471		0.465683		0.473588		78.613483		-11.120834		-4.438213		-134.685278		2.168205		-35.461599		4.144041		71.808777		6.355262		-8.352245		-130.755497		25.140062		-16.483539		26.850470		-76.319004		0.261216		-6.685838		19.163642		3.925443		-3.513881		86.714384		-31.314267		34.058948		62.234703		98.242617		-30.794538		2.784096		56.160717		87.133758		-27.374120		26.527633		63.186596		135.714057		-32.749802		9.887794		90.000210		
1.254091		-1.617054		15.831783		92.862197		-0.049459		0.463138		0.472812		79.139590		-11.563277		-4.485757		-135.015775		2.121238		-35.753412		3.794736		72.248019		6.415060		-8.456384		-131.181685		25.335500		-16.023894		27.099354		-76.393084		0.386782		-6.812731		19.320120		4.007292		-3.520339		88.356454		-31.089705		34.523385		62.312257		98.164228		-30.582811		2.774655		55.982290		88.763871		-27.207720		27.372297		63.046219		135.935423		-32.628813		9.703937		90.000210		
1.256995		-1.625968		15.609472		92.936702		-0.050293		0.460609		0.472048		79.677278		-11.929545		-4.480440		-135.343262		2.160377		-35.876237		3.540155		72.725146		6.419052		-8.507760		-131.624199		25.558817		-15.525659		27.340725		-76.420102		0.486524		-6.902916		19.474045		4.092291		-3.519237		89.945115		-30.832237		34.923352		62.353810		98.059982		-30.385192		2.741075		55.751505		90.354268		-27.029792		28.185171		62.881595		136.159569		-32.535850		9.531549		90.000210		
1.259899		-1.593075		15.338740		92.982864		-0.051017		0.457992		0.471300		80.243937		-12.263416		-4.480394		-135.695406		2.312133		-35.772699		3.386932		73.268702		6.384025		-8.514590		-132.066008		25.811537		-14.951043		27.585011		-76.379973		0.569570		-6.963857		19.585118		4.179350		-3.511599		91.479995		-30.574446		35.322074		62.374397		97.944524		-30.182119		2.677262		55.457982		91.919623		-26.864682		29.041845		62.719198		136.398619		-32.473456		9.354273		90.000210		
1.262803		-1.473653		15.024062		93.009180		-0.051562		0.455348		0.470539		80.805966		-12.547154		-4.498052		-136.061234		2.817220		-35.152609		3.271497		73.852149		6.289100		-8.350753		-132.527584		26.250713		-13.860076		28.104593		-76.277619		0.662935		-6.961233		19.702283		4.288960		-3.491086		92.926951		-30.298255		35.668257		62.381873		97.437132		-30.001607		2.521052		54.584375		93.439081		-26.702668		29.937814		62.539637		136.415361		-32.729496		9.288616		90.000210		
1.265707		-1.356257		14.669243		93.020358		-0.052148		0.452625		0.469774		81.420940		-12.809899		-4.491914		-136.417915		3.070484		-34.863371		3.355625		74.507728		6.213197		-8.292346		-132.967753		26.408152		-13.563024		28.247827		-76.110691		0.755924		-6.944686		19.751708		4.358336		-3.460519		94.368681		-30.007781		36.021726		62.331948		97.521233		-29.823128		2.485016		54.354785		94.887535		-26.510188		30.739561		62.358124		136.683401		-32.661760		9.091574		90.000210		
1.268611		-1.195669		14.263094		93.027354		-0.052638		0.449814		0.468958		82.076686		-13.071500		-4.515987		-136.788639		3.462613		-34.325136		3.560639		75.223512		6.107723		-8.151168		-133.413574		26.628461		-12.983458		28.437676		-75.872488		0.853780		-6.899609		19.785887		4.446795		-3.430163		95.716821		-29.706723		36.321012		62.288617		97.521897		-29.745836		2.427003		54.029562		96.297583		-26.345729		31.598592		62.204177		136.885632		-32.645538		8.905923		90.000210		
